<svg id="Layer_1" data-name="Layer 1" xmlns="http://www.w3.org/2000/svg" xmlns:xlink="http://www.w3.org/1999/xlink" viewBox="0 0 600 550"><defs><style>.cls-1{stroke:#231f20;stroke-miterlimit:10;fill:url(#linear-gradient);}</style><linearGradient id="linear-gradient" x1="102" y1="270" x2="502.12" y2="270" gradientUnits="userSpaceOnUse"><stop offset="0" stop-color="#9acc59"/><stop offset="1" stop-color="#27b88d"/></linearGradient></defs><path class="cls-1" d="M502,190c-3.16,0-76.85,0-80,0,0-3.06,0-36.94,0-40H382V70h80c0,3.88-.05,36.1,0,40,13.36.11,26.63.33,40,0,0,2.73,0,77.77,0,80.5M502,330c.2-26.94.13-52.91,0-80-26.94.08-53.07-.08-80,0-26.27-26.17-73.33-72.22-100-100V70H242V190c46.47,45.43,97.05,97,140,140H502Zm-306.27,4.12c5.6-5.12,42.85-44,49.06-49.69C222.38,261,202.76,241.25,182,220c0-16.1,0-133.9,0-150H102V260c12.58,10.68,65.89,67.51,83.16,85C185.79,344.37,195.45,334.37,195.73,334.12Zm74.15,5.56c-4.87,4.91-40.74,41.38-44.71,45.5,27.06,30.18,69.46,66.39,85.9,84.82h190V390h-150c-23.65-22.44-44.73-45.27-66.16-65.62C283,326.14,271.36,338.19,269.88,339.68Z"/></svg>